<svg width="24" height="24" viewBox="0 0 24 24" fill="none" xmlns="http://www.w3.org/2000/svg">
<g clip-path="url(#clip0_1177_497)">
<path fill-rule="evenodd" clip-rule="evenodd" d="M12 0.75C8.9445 0.75 8.562 0.76275 7.362 0.8175C6.16425 0.87225 5.346 1.06275 4.6305 1.341C3.8805 1.623 3.20025 2.0655 2.63775 2.6385C2.06567 3.20035 1.62289 3.88012 1.34025 4.6305C1.0635 5.346 0.87225 6.165 0.8175 7.36275C0.7635 8.562 0.75 8.94375 0.75 12C0.75 15.0562 0.76275 15.438 0.8175 16.638C0.87225 17.8358 1.06275 18.654 1.341 19.3695C1.623 20.1195 2.0655 20.7997 2.6385 21.3622C3.20037 21.9343 3.88013 22.3771 4.6305 22.6597C5.346 22.9373 6.16425 23.1278 7.362 23.1825C8.562 23.2372 8.9445 23.25 12 23.25C15.0555 23.25 15.438 23.2372 16.638 23.1825C17.8358 23.1278 18.654 22.9373 19.3695 22.659C20.1195 22.377 20.7997 21.9345 21.3622 21.3615C21.9343 20.7997 22.3771 20.1199 22.6597 19.3695C22.9373 18.654 23.1278 17.8358 23.1825 16.638C23.2372 15.438 23.25 15.0555 23.25 12C23.25 8.9445 23.2372 8.562 23.1825 7.362C23.1278 6.16425 22.9373 5.346 22.659 4.6305C22.3766 3.8798 21.9338 3.19974 21.3615 2.63775C20.7997 2.06567 20.1199 1.62289 19.3695 1.34025C18.654 1.0635 17.835 0.87225 16.6373 0.8175C15.438 0.7635 15.0562 0.75 12 0.75ZM12 2.77725C15.0037 2.77725 15.36 2.7885 16.5465 2.8425C17.643 2.89275 18.2385 3.075 18.6353 3.23025C19.1602 3.4335 19.5352 3.678 19.929 4.071C20.3228 4.46475 20.5665 4.83975 20.7698 5.36475C20.9242 5.7615 21.1073 6.357 21.1575 7.4535C21.2115 8.64 21.2228 8.99625 21.2228 12C21.2228 15.0037 21.2115 15.36 21.1575 16.5465C21.1073 17.643 20.925 18.2385 20.7698 18.6353C20.5897 19.1239 20.3024 19.566 19.929 19.929C19.5661 20.3025 19.124 20.5898 18.6353 20.7698C18.2385 20.9242 17.643 21.1073 16.5465 21.1575C15.36 21.2115 15.0045 21.2228 12 21.2228C8.9955 21.2228 8.64 21.2115 7.4535 21.1575C6.357 21.1073 5.7615 20.925 5.36475 20.7698C4.87609 20.5897 4.434 20.3024 4.071 19.929C3.69763 19.566 3.41035 19.1239 3.23025 18.6353C3.07575 18.2385 2.89275 17.643 2.8425 16.5465C2.7885 15.36 2.77725 15.0037 2.77725 12C2.77725 8.99625 2.7885 8.64 2.8425 7.4535C2.89275 6.357 3.075 5.7615 3.23025 5.36475C3.4335 4.83975 3.678 4.46475 4.071 4.071C4.43396 3.69753 4.87606 3.41023 5.36475 3.23025C5.7615 3.07575 6.357 2.89275 7.4535 2.8425C8.64 2.7885 8.99625 2.77725 12 2.77725Z" fill="black"/>
<path fill-rule="evenodd" clip-rule="evenodd" d="M12.0003 15.7537C11.5073 15.7537 11.0192 15.6566 10.5638 15.468C10.1083 15.2794 9.69454 15.0029 9.34597 14.6543C8.9974 14.3057 8.7209 13.8919 8.53226 13.4365C8.34362 12.9811 8.24652 12.4929 8.24652 12C8.24652 11.507 8.34362 11.0189 8.53226 10.5635C8.7209 10.1081 8.9974 9.69425 9.34597 9.34568C9.69454 8.99711 10.1083 8.72061 10.5638 8.53197C11.0192 8.34332 11.5073 8.24623 12.0003 8.24623C12.9958 8.24623 13.9506 8.64171 14.6546 9.34568C15.3585 10.0496 15.754 11.0044 15.754 12C15.754 12.9955 15.3585 13.9503 14.6546 14.6543C13.9506 15.3582 12.9958 15.7537 12.0003 15.7537ZM12.0003 6.21748C10.4667 6.21748 8.99586 6.82671 7.91143 7.91114C6.827 8.99556 6.21777 10.4664 6.21777 12C6.21777 13.5336 6.827 15.0044 7.91143 16.0888C8.99586 17.1733 10.4667 17.7825 12.0003 17.7825C13.5339 17.7825 15.0047 17.1733 16.0891 16.0888C17.1735 15.0044 17.7828 13.5336 17.7828 12C17.7828 10.4664 17.1735 8.99556 16.0891 7.91114C15.0047 6.82671 13.5339 6.21748 12.0003 6.21748ZM19.465 6.11248C19.465 6.475 19.321 6.82267 19.0647 7.07901C18.8083 7.33535 18.4607 7.47936 18.0981 7.47936C17.7356 7.47936 17.388 7.33535 17.1316 7.07901C16.8753 6.82267 16.7313 6.475 16.7313 6.11248C16.7313 5.74996 16.8753 5.40229 17.1316 5.14595C17.388 4.88962 17.7356 4.74561 18.0981 4.74561C18.4607 4.74561 18.8083 4.88962 19.0647 5.14595C19.321 5.40229 19.465 5.74996 19.465 6.11248Z" fill="black"/>
</g>
<defs>
<clipPath id="clip0_1177_497">
<rect width="24" height="24" fill="white"/>
</clipPath>
</defs>
</svg>
